<?xml version="1.0" encoding="iso-8859-1"?>
<!-- Generator: Adobe Illustrator 19.0.0, SVG Export Plug-In . SVG Version: 6.00 Build 0)  -->
<svg xmlns="http://www.w3.org/2000/svg" xmlns:xlink="http://www.w3.org/1999/xlink" version="1.1" id="Capa_1" x="0px" y="0px" viewBox="0 0 394.459 394.459" style="enable-background:new 0 0 394.459 394.459;" xml:space="preserve" width="512px" height="512px">
<g>
	<g>
		<path d="M278.859,269.549l-19.68-10.4c-15.432-9.403-35.564-4.516-44.967,10.915c-0.218,0.357-0.429,0.719-0.633,1.085    l-8.96,13.44c-42.057-28.838-78.359-65.276-107.04-107.44l13.44-8.88c9.68-6.56,24-21.52,10.96-47.28l-9.36-18    c-13.84-25.6-34.24-22.48-45.2-18.24l-45.68,18.08c-9.538,3.169-17.034,10.634-20.24,20.16c-3.123,13.009-1.328,26.714,5.04,38.48    c46.792,92.449,121.916,167.517,214.4,214.24c8.047,4.188,16.933,6.512,26,6.8c14.05,0.077,26.727-8.417,32-21.44v-0.56    l18.16-45.84C301.259,303.709,304.379,283.309,278.859,269.549z M286.219,310.349l-17.76,45.36    c-2.417,5.849-7.046,10.507-12.88,12.96c-9.882,2.682-20.431,1.208-29.2-4.08c-90.298-45.602-163.654-118.875-209.36-209.12    c-4.736-8.927-6.181-19.235-4.08-29.12c2.139-6.073,7.04-10.766,13.2-12.64l45.68-18.08c3.231-1.309,6.675-2.014,10.16-2.08    c9.01,0.637,16.853,6.394,20.16,14.8l9.2,18c4.4,8.64,8.48,21.44-6.96,32l-18.48,12.24c-2.571,1.814-3.304,5.305-1.68,8    c31.307,47.443,71.879,88.07,119.28,119.44c2.695,1.624,6.186,0.891,8-1.68l12.24-18.48c5.07-10.259,17.496-14.466,27.755-9.397    c0.832,0.411,1.635,0.878,2.405,1.397l19.52,10.24C282.059,284.749,292.779,292.989,286.219,310.349z" fill="#D80027"/>
	</g>
</g>
<g>
	<g>
		<path d="M345.739,83.149c-3.76-40-45.2-71.2-96-71.2c-53.04,0-96,34.56-96,77.04c0.584,22.954,12.239,44.207,31.28,57.04v47.44    c0,3.314,2.686,6,5.999,6.001c1.513,0,2.971-0.572,4.081-1.601l36.24-33.12c2.88,0.48,5.68,0.8,8.56,1.04    c11.84,24.72,41.2,41.04,74.56,41.04c5.008,0.004,10.009-0.371,14.96-1.12l29.36,26.88c2.43,2.253,6.226,2.11,8.479-0.319    c1.029-1.11,1.601-2.567,1.601-4.081v-38.4c15.656-10.785,25.179-28.433,25.6-47.44    C394.459,116.509,375.019,93.149,345.739,83.149z M248.699,154.109c-6.118-0.009-12.223-0.571-18.24-1.68    c-1.838-0.357-3.737,0.177-5.12,1.44l-28.32,25.92v-36.88c-0.004-1.989-0.992-3.846-2.64-4.96    c-17.099-10.461-27.844-28.77-28.64-48.8c0-35.84,37.76-65.04,84.16-65.04c46.4,0,84.16,29.2,84.16,65.04    c-0.035,3.772-0.491,7.529-1.36,11.2c-3.663,12.752-10.977,24.153-21.04,32.8C293.726,147.203,271.477,154.61,248.699,154.109z     M359.419,181.469c-1.648,1.114-2.636,2.971-2.64,4.96v27.92l-21.44-19.6c-1.11-1.029-2.567-1.6-4.08-1.6h-1.12    c-5.278,0.971-10.634,1.453-16,1.44c-23.503,0.848-45.98-9.661-60.4-28.24c24.387-0.895,47.838-9.618,66.88-24.88    c11.963-10.284,20.364-24.089,24-39.44c0-1.68,0.72-3.2,0.88-4.64v-0.96c22.48,8.56,36.96,26.48,36.96,45.92    C381.821,158.426,373.17,173.115,359.419,181.469z" fill="#D80027"/>
	</g>
</g>
<g>
</g>
<g>
</g>
<g>
</g>
<g>
</g>
<g>
</g>
<g>
</g>
<g>
</g>
<g>
</g>
<g>
</g>
<g>
</g>
<g>
</g>
<g>
</g>
<g>
</g>
<g>
</g>
<g>
</g>
</svg>
